<?xml version="1.0" ?><svg id="Layer_1" style="enable-background:new 0 0 32 32;" version="1.1" viewBox="0 0 32 32" xml:space="preserve" xmlns="http://www.w3.org/2000/svg" xmlns:xlink="http://www.w3.org/1999/xlink"><style type="text/css">
	.st0{fill:#00BBB4;}
	.st1{fill:#1B75BC;}
	.st2{fill:#F15A29;}
</style><path class="st2" d="M22.8428345,4.9344482L19.2999878,1L16,4.9344482L12.7000122,1L9.1571655,4.9344482L5,1v26.65625  C5,29.5029907,6.4970703,31,8.34375,31h15.3125C25.5029297,31,27,29.5029907,27,27.65625V1L22.8428345,4.9344482z M17,21.1713867  V22.25c0,0.5522461-0.4472656,1-1,1s-1-0.4477539-1-1v-0.9515381c-1.0842896-0.2927246-2.0419922-1.2032471-2.0419922-2.8497314  c0-0.5522461,0.4472656-1,1-1s1,0.4477539,1,1c0,0.6401367,0.2763672,0.9643555,0.8212891,0.9643555  c0.4882813,0,1.2626953-0.3510742,1.2626953-1.2929688c0-0.8017578-0.5224609-1.1499023-1.7148438-1.753418  c-0.9882813-0.5004883-2.3417969-1.1850586-2.3417969-2.7421875c0-1.4798584,0.7533569-2.5596313,2.0146484-2.9151611V9.75  c0-0.5522461,0.4472656-1,1-1s1,0.4477539,1,1v1.0462036c0.8589478,0.3190308,1.5164185,0.9351196,1.8535156,1.4030151  c0.3222656,0.4482422,0.2207031,1.0732422-0.2275391,1.3959961c-0.4472656,0.3222656-1.0683594,0.222168-1.3916016-0.2216797  c-0.0380859-0.050293-0.7519531-0.9804688-1.6640625-0.7529297c-0.1748047,0.0439453-0.5849609,0.1464844-0.5849609,1.0039063  c0,0.2822266,0.3671875,0.5131836,1.2451172,0.9575195c1.1191406,0.5668945,2.8115234,1.4228516,2.8115234,3.5380859  C19.0419922,19.6501465,18.1268311,20.7199097,17,21.1713867z"/></svg>