<?xml version="1.0" ?><svg enable-background="new 0 0 52 52" id="Layer_1" version="1.1" viewBox="0 0 52 52" xml:space="preserve" xmlns="http://www.w3.org/2000/svg" xmlns:xlink="http://www.w3.org/1999/xlink"><g><path d="M26,1.7399902c-6.6199951,0-12,5.3800049-12,12c0,4.9200439,2.9899902,9.3000488,7.5,11.1199951v3.1099854   l1.3499756,2.6900635l-2.0499878,3.0799561l2,3l-2.0899658,3.1199951l2,2l-1.9299927,2.9100342l4.1099854,5.4899902L30,45.1500244   V25.0500488c4.75-1.6800537,8-6.2199707,8-11.3100586C38,7.1199951,32.6199951,1.7399902,26,1.7399902z M26,16.7399902   c-2.210022,0-4-1.7900391-4-4s1.789978-4,4-4c2.2000122,0,4,1.7900391,4,4S28.2000122,16.7399902,26,16.7399902z" fill="#3A92CC"/></g></svg>