<?xml version="1.0" ?><svg viewBox="0 0 32 32" xmlns="http://www.w3.org/2000/svg"><defs><style>.cls-1{fill:none;stroke:#dd2853;stroke-miterlimit:10;stroke-width:2px;}.cls-2{fill:#e291a8;}.cls-3{fill:#dd2853;}</style></defs><title/><g data-name="Layer 17" id="Layer_17"><path class="cls-1" d="M17.91,2H14.09A4.09,4.09,0,0,0,10,6.09V7a1,1,0,0,0,1,1H21a1,1,0,0,0,1-1V6.09A4.09,4.09,0,0,0,17.91,2Z"/><rect class="cls-2" height="24" rx="1" ry="1" width="20" x="6" y="6"/><path class="cls-3" d="M14,13h1v1a1,1,0,0,0,2,0V13h1a1,1,0,0,0,0-2H17V10a1,1,0,0,0-2,0v1H14a1,1,0,0,0,0,2Z"/><path class="cls-3" d="M22,24H10a1,1,0,0,0,0,2H22a1,1,0,0,0,0-2Z"/><path class="cls-3" d="M22,21H10a1,1,0,0,0,0,2H22a1,1,0,0,0,0-2Z"/><path class="cls-3" d="M10,20H22a1,1,0,0,0,0-2H10a1,1,0,0,0,0,2Z"/></g></svg>