<?xml version="1.0" ?><svg style="enable-background:new 0 0 48 48;" version="1.1" viewBox="0 0 48 48" xml:space="preserve" xmlns="http://www.w3.org/2000/svg" xmlns:xlink="http://www.w3.org/1999/xlink"><g id="Icons"><g><radialGradient cx="23.90966" cy="31.05214" gradientUnits="userSpaceOnUse" id="SVGID_1_" r="7.12184"><stop offset="0.09184" style="stop-color:#FAF707"/><stop offset="0.72959" style="stop-color:#FFFC00"/></radialGradient><path d="M14.05275,33.12154c0-1.03605,0.42746-2.34204,1.1085-3.03032    c0.68828-0.68104,1.63739-1.1085,2.67343-1.1085h12.14998c2.07933,0,3.78192,2.05948,3.78192,4.13881" style="fill:url(#SVGID_1_);"/><circle cx="23.90966" cy="21.34444" r="5.60788" style="fill:#FFFFFF;"/><circle cx="23.90966" cy="21.34444" r="5.60788" style="fill:none;stroke:#303030;stroke-width:0.7;stroke-linecap:round;stroke-linejoin:round;stroke-miterlimit:10;"/><path d="    M25.48002,17.72259c0.27498,0.11939,0.5337,0.26917,0.77193,0.44512" style="fill:none;stroke:#303030;stroke-width:0.7;stroke-linecap:round;stroke-linejoin:round;stroke-miterlimit:10;"/><path d="    M19.96303,21.34444c0-2.17967,1.76697-3.94663,3.94663-3.94663" style="fill:none;stroke:#303030;stroke-width:0.7;stroke-linecap:round;stroke-linejoin:round;stroke-miterlimit:10;"/><path d="    M14.05275,33.12154c0-1.03605,0.42746-2.34204,1.1085-3.03032c0.68828-0.68104,1.63739-1.1085,2.67343-1.1085h12.14998    c2.07933,0,3.78192,2.05948,3.78192,4.13881" style="fill:none;stroke:#303030;stroke-width:0.7;stroke-linecap:round;stroke-linejoin:round;stroke-miterlimit:10;"/><line style="fill:none;stroke:#303030;stroke-width:0.7;stroke-linecap:round;stroke-linejoin:round;stroke-miterlimit:10;" x1="33.76657" x2="14.05275" y1="33.12154" y2="33.12154"/><line style="fill:none;stroke:#303030;stroke-width:0.7;stroke-linecap:round;stroke-linejoin:round;stroke-miterlimit:10;" x1="32.29101" x2="32.29101" y1="14.87846" y2="18.19094"/><line style="fill:none;stroke:#303030;stroke-width:0.7;stroke-linecap:round;stroke-linejoin:round;stroke-miterlimit:10;" x1="33.94725" x2="30.63477" y1="16.5347" y2="16.5347"/></g></g></svg>