<?xml version="1.0" ?><!DOCTYPE svg  PUBLIC '-//W3C//DTD SVG 1.1//EN'  'http://www.w3.org/Graphics/SVG/1.1/DTD/svg11.dtd'><svg enable-background="new 0 0 128 128" id="Layer_1" version="1.1" viewBox="0 0 128 128" xml:space="preserve" xmlns="http://www.w3.org/2000/svg" xmlns:xlink="http://www.w3.org/1999/xlink"><path d="M107,105H16c-2.21,0-4-1.79-4-4V24c0-2.21,1.79-4,4-4h91c2.21,0,4,1.79,4,4v77  C111,103.21,109.21,105,107,105z" fill="#D1D3D4"/><path d="M112,105H21c-2.21,0-4-1.79-4-4V24c0-2.21,1.79-4,4-4h91c2.21,0,4,1.79,4,4v77  C116,103.21,114.21,105,112,105z" fill="#E6E7E8"/><path d="M107,20H16c-2.21,0-4,1.79-4,4v19h99V24C111,21.79,109.21,20,107,20z M36.67,35c-1.93,0-3.5-1.57-3.5-3.5  s1.57-3.5,3.5-3.5c1.93,0,3.5,1.57,3.5,3.5S38.6,35,36.67,35z M61.58,35c-1.93,0-3.5-1.57-3.5-3.5s1.57-3.5,3.5-3.5  c1.93,0,3.5,1.57,3.5,3.5S63.52,35,61.58,35z M86.5,35c-1.93,0-3.5-1.57-3.5-3.5s1.57-3.5,3.5-3.5s3.5,1.57,3.5,3.5  S88.43,35,86.5,35z" fill="#D60080"/><path d="M112,20H21c-2.21,0-4,1.79-4,4v19h99V24C116,21.79,114.21,20,112,20z M41.67,35c-1.93,0-3.5-1.57-3.5-3.5  s1.57-3.5,3.5-3.5c1.93,0,3.5,1.57,3.5,3.5S43.6,35,41.67,35z M66.58,35c-1.93,0-3.5-1.57-3.5-3.5s1.57-3.5,3.5-3.5  c1.93,0,3.5,1.57,3.5,3.5S68.52,35,66.58,35z M91.5,35c-1.93,0-3.5-1.57-3.5-3.5s1.57-3.5,3.5-3.5s3.5,1.57,3.5,3.5  S93.43,35,91.5,35z" fill="#EC008C"/><rect fill="#D1D3D4" height="9" width="10" x="49" y="49"/><rect fill="#D1D3D4" height="9" width="10" x="62" y="49"/><rect fill="#D1D3D4" height="9" width="10" x="75" y="49"/><rect fill="#D1D3D4" height="9" width="10" x="88" y="49"/><rect fill="#D1D3D4" height="9" width="10" x="101" y="49"/><rect fill="#D1D3D4" height="9" width="10" x="23" y="63"/><rect fill="#D1D3D4" height="9" width="10" x="49" y="63"/><rect fill="#D1D3D4" height="9" width="10" x="62" y="63"/><rect fill="#00C0F3" height="9" width="36" x="36" y="63"/><rect fill="#D1D3D4" height="9" width="10" x="75" y="63"/><rect fill="#D1D3D4" height="9" width="10" x="88" y="63"/><rect fill="#D1D3D4" height="9" width="10" x="101" y="63"/><rect fill="#D1D3D4" height="9" width="10" x="36" y="76"/><rect fill="#D1D3D4" height="9" width="10" x="23" y="76"/><rect fill="#D1D3D4" height="9" width="10" x="49" y="76"/><rect fill="#D1D3D4" height="9" width="10" x="62" y="76"/><rect fill="#D1D3D4" height="9" width="10" x="75" y="76"/><rect fill="#D1D3D4" height="9" width="10" x="88" y="76"/><rect fill="#D1D3D4" height="9" width="10" x="101" y="76"/><rect fill="#D1D3D4" height="9" width="10" x="36" y="89"/><rect fill="#D1D3D4" height="9" width="10" x="23" y="89"/><rect fill="#D1D3D4" height="9" width="10" x="49" y="89"/><rect fill="#D1D3D4" height="9" width="10" x="62" y="89"/><circle cx="98.08" cy="92.08" fill="#0092C8" r="22.08"/><circle cx="101.08" cy="92.08" fill="#00AEEF" r="22.08"/><circle cx="101.08" cy="92.08" fill="#00C0F3" r="18.02"/><line fill="none" stroke="#EC008C" stroke-linecap="round" stroke-miterlimit="10" stroke-width="5" x1="101.08" x2="103.75" y1="92.08" y2="81.17"/><line fill="none" stroke="#FFF200" stroke-linecap="round" stroke-miterlimit="10" stroke-width="2" x1="101.08" x2="114.5" y1="92.08" y2="98"/><circle cx="101.08" cy="92.08" fill="#414042" r="2.67"/><circle cx="101" cy="106.75" fill="#00AEEF" r="1.42"/><circle cx="101" cy="76.75" fill="#00AEEF" r="1.42"/><circle cx="85.88" cy="92.08" fill="#00AEEF" r="1.42"/><circle cx="115.88" cy="92.08" fill="#00AEEF" r="1.42"/></svg>